<mxfile host="65bd71144e">
    <diagram id="FZ60K4LI011Gyu58d7Ft" name="Page-1">
        <mxGraphModel dx="4892" dy="2284" grid="1" gridSize="10" guides="1" tooltips="1" connect="1" arrows="1" fold="1" page="1" pageScale="1" pageWidth="850" pageHeight="1100" background="#003366" math="0" shadow="0">
            <root>
                <mxCell id="0"/>
                <mxCell id="1" parent="0"/>
                <mxCell id="143" value="" style="rounded=0;whiteSpace=wrap;html=1;" vertex="1" parent="1">
                    <mxGeometry x="-320" y="920" width="4040" height="120" as="geometry"/>
                </mxCell>
                <mxCell id="127" value="" style="rounded=0;whiteSpace=wrap;html=1;" vertex="1" parent="1">
                    <mxGeometry x="-320" y="760" width="4040" height="120" as="geometry"/>
                </mxCell>
                <mxCell id="128" value="Asset" style="text;strokeColor=none;fillColor=none;align=left;verticalAlign=middle;spacingLeft=4;spacingRight=4;overflow=hidden;points=[[0,0.5],[1,0.5]];portConstraint=eastwest;rotatable=0;fontSize=32;" vertex="1" parent="1">
                    <mxGeometry x="-520" y="800" width="120" height="40" as="geometry"/>
                </mxCell>
                <mxCell id="129" value="Texture" style="rounded=1;whiteSpace=wrap;html=1;fontSize=32;" vertex="1" parent="1">
                    <mxGeometry x="520" y="800" width="280" height="40" as="geometry"/>
                </mxCell>
                <mxCell id="130" value="Sampler" style="rounded=1;whiteSpace=wrap;html=1;fontSize=32;" vertex="1" parent="1">
                    <mxGeometry x="840" y="960" width="280" height="40" as="geometry"/>
                </mxCell>
                <mxCell id="131" value="VBuffer" style="rounded=1;whiteSpace=wrap;html=1;fontSize=32;" vertex="1" parent="1">
                    <mxGeometry x="1600" y="800" width="600" height="40" as="geometry"/>
                </mxCell>
                <mxCell id="134" value="Shader" style="rounded=1;whiteSpace=wrap;html=1;fontSize=32;" vertex="1" parent="1">
                    <mxGeometry x="2600" y="795" width="320" height="40" as="geometry"/>
                </mxCell>
                <mxCell id="135" value="Pipeline" style="rounded=1;whiteSpace=wrap;html=1;fontSize=32;" vertex="1" parent="1">
                    <mxGeometry x="2960" y="795" width="320" height="40" as="geometry"/>
                </mxCell>
                <mxCell id="136" value="" style="rounded=0;whiteSpace=wrap;html=1;fillColor=default;" vertex="1" parent="1">
                    <mxGeometry x="-320" y="1120" width="4040" height="680" as="geometry"/>
                </mxCell>
                <mxCell id="139" value="AssetKeyTexSlot..." style="rounded=1;whiteSpace=wrap;html=1;fontSize=26;fillColor=none;" vertex="1" parent="1">
                    <mxGeometry x="520" y="1160" width="280" height="40" as="geometry"/>
                </mxCell>
                <mxCell id="140" value="AssetResTexSlot..." style="rounded=1;whiteSpace=wrap;html=1;fontSize=26;fillColor=none;" vertex="1" parent="1">
                    <mxGeometry x="520" y="1200" width="280" height="40" as="geometry"/>
                </mxCell>
                <mxCell id="141" value="SamplerDesc" style="rounded=1;whiteSpace=wrap;html=1;fontSize=26;fillColor=none;" vertex="1" parent="1">
                    <mxGeometry x="840" y="1160" width="280" height="40" as="geometry"/>
                </mxCell>
                <mxCell id="142" value="SamplerSlot..." style="rounded=1;whiteSpace=wrap;html=1;fontSize=26;fillColor=none;" vertex="1" parent="1">
                    <mxGeometry x="840" y="1200" width="280" height="40" as="geometry"/>
                </mxCell>
                <mxCell id="144" value="Resource" style="text;strokeColor=none;fillColor=none;align=left;verticalAlign=middle;spacingLeft=4;spacingRight=4;overflow=hidden;points=[[0,0.5],[1,0.5]];portConstraint=eastwest;rotatable=0;fontSize=32;" vertex="1" parent="1">
                    <mxGeometry x="-520" y="960" width="150" height="40" as="geometry"/>
                </mxCell>
                <mxCell id="145" value="AssetDescVBSlot...&lt;span style=&quot;color: rgba(0 , 0 , 0 , 0) ; font-family: monospace ; font-size: 0px&quot;&gt;%3CmxGraphModel%3E%3Croot%3E%3CmxCell%20id%3D%220%22%2F%3E%3CmxCell%20id%3D%221%22%20parent%3D%220%22%2F%3E%3CmxCell%20id%3D%222%22%20value%3D%22SamplerDesc%22%20style%3D%22rounded%3D1%3BwhiteSpace%3Dwrap%3Bhtml%3D1%3BfontSize%3D26%3BfillColor%3Dnone%3B%22%20vertex%3D%221%22%20parent%3D%221%22%3E%3CmxGeometry%20x%3D%22480%22%20y%3D%221160%22%20width%3D%22280%22%20height%3D%2240%22%20as%3D%22geometry%22%2F%3E%3C%2FmxCell%3E%3C%2Froot%3E%3C%2FmxGraphModel%3E&lt;/span&gt;&lt;span style=&quot;color: rgba(0 , 0 , 0 , 0) ; font-family: monospace ; font-size: 0px&quot;&gt;%3CmxGraphModel%3E%3Croot%3E%3CmxCell%20id%3D%220%22%2F%3E%3CmxCell%20id%3D%221%22%20parent%3D%220%22%2F%3E%3CmxCell%20id%3D%222%22%20value%3D%22SamplerDesc%22%20style%3D%22rounded%3D1%3BwhiteSpace%3Dwrap%3Bhtml%3D1%3BfontSize%3D26%3BfillColor%3Dnone%3B%22%20vertex%3D%221%22%20parent%3D%221%22%3E%3CmxGeometry%20x%3D%22480%22%20y%3D%221160%22%20width%3D%22280%22%20height%3D%2240%22%20as%3D%22geometry%22%2F%3E%3C%2FmxCell%3E%3C%2Froot%3E%3C%2FmxGraphModel%3E&lt;/span&gt;" style="rounded=1;whiteSpace=wrap;html=1;fontSize=26;fillColor=none;" vertex="1" parent="1">
                    <mxGeometry x="1600" y="1240" width="320" height="40" as="geometry"/>
                </mxCell>
                <mxCell id="146" value="AssetKeyVBSlot...&lt;span style=&quot;color: rgba(0 , 0 , 0 , 0) ; font-family: monospace ; font-size: 0px&quot;&gt;%3CmxGraphModel%3E%3Croot%3E%3CmxCell%20id%3D%220%22%2F%3E%3CmxCell%20id%3D%221%22%20parent%3D%220%22%2F%3E%3CmxCell%20id%3D%222%22%20value%3D%22SamplerDesc%22%20style%3D%22rounded%3D1%3BwhiteSpace%3Dwrap%3Bhtml%3D1%3BfontSize%3D26%3BfillColor%3Dnone%3B%22%20vertex%3D%221%22%20parent%3D%221%22%3E%3CmxGeometry%20x%3D%22480%22%20y%3D%221160%22%20width%3D%22280%22%20height%3D%2240%22%20as%3D%22geometry%22%2F%3E%3C%2FmxCell%3E%3C%2Froot%3E%3C%2FmxGraphModel%3E&lt;/span&gt;&lt;span style=&quot;color: rgba(0 , 0 , 0 , 0) ; font-family: monospace ; font-size: 0px&quot;&gt;%3CmxGraphModel%3E%3Croot%3E%3CmxCell%20id%3D%220%22%2F%3E%3CmxCell%20id%3D%221%22%20parent%3D%220%22%2F%3E%3CmxCell%20id%3D%222%22%20value%3D%22SamplerDesc%22%20style%3D%22rounded%3D1%3BwhiteSpace%3Dwrap%3Bhtml%3D1%3BfontSize%3D26%3BfillColor%3Dnone%3B%22%20vertex%3D%221%22%20parent%3D%221%22%3E%3CmxGeometry%20x%3D%22480%22%20y%3D%221160%22%20width%3D%22280%22%20height%3D%2240%22%20as%3D%22geometry%22%2F%3E%3C%2FmxCell%3E%3C%2Froot%3E%3C%2FmxGraphModel%3E&lt;/span&gt;" style="rounded=1;whiteSpace=wrap;html=1;fontSize=26;fillColor=none;" vertex="1" parent="1">
                    <mxGeometry x="1600" y="1280" width="320" height="40" as="geometry"/>
                </mxCell>
                <mxCell id="147" value="AssetResVBSlot...&lt;span style=&quot;color: rgba(0 , 0 , 0 , 0) ; font-family: monospace ; font-size: 0px&quot;&gt;%3CmxGraphModel%3E%3Croot%3E%3CmxCell%20id%3D%220%22%2F%3E%3CmxCell%20id%3D%221%22%20parent%3D%220%22%2F%3E%3CmxCell%20id%3D%222%22%20value%3D%22SamplerDesc%22%20style%3D%22rounded%3D1%3BwhiteSpace%3Dwrap%3Bhtml%3D1%3BfontSize%3D26%3BfillColor%3Dnone%3B%22%20vertex%3D%221%22%20parent%3D%221%22%3E%3CmxGeometry%20x%3D%22480%22%20y%3D%221160%22%20width%3D%22280%22%20height%3D%2240%22%20as%3D%22geometry%22%2F%3E%3C%2FmxCell%3E%3C%2Froot%3E%3C%2FmxGraphModel%3E&lt;/span&gt;&lt;span style=&quot;color: rgba(0 , 0 , 0 , 0) ; font-family: monospace ; font-size: 0px&quot;&gt;%3CmxGraphModel%3E%3Croot%3E%3CmxCell%20id%3D%220%22%2F%3E%3CmxCell%20id%3D%221%22%20parent%3D%220%22%2F%3E%3CmxCell%20id%3D%222%22%20value%3D%22SamplerDesc%22%20style%3D%22rounded%3D1%3BwhiteSpace%3Dwrap%3Bhtml%3D1%3BfontSize%3D26%3BfillColor%3Dnone%3B%22%20vertex%3D%221%22%20parent%3D%221%22%3E%3CmxGeometry%20x%3D%22480%22%20y%3D%221160%22%20width%3D%22280%22%20height%3D%2240%22%20as%3D%22geometry%22%2F%3E%3C%2FmxCell%3E%3C%2Froot%3E%3C%2FmxGraphModel%3E&lt;/span&gt;" style="rounded=1;whiteSpace=wrap;html=1;fontSize=26;fillColor=none;" vertex="1" parent="1">
                    <mxGeometry x="1600" y="1320" width="320" height="40" as="geometry"/>
                </mxCell>
                <mxCell id="148" value="BindGroup" style="rounded=1;whiteSpace=wrap;html=1;fontSize=32;" vertex="1" parent="1">
                    <mxGeometry x="1160" y="960" width="320" height="40" as="geometry"/>
                </mxCell>
                <mxCell id="149" value="ShaderEffectMeta" style="rounded=1;whiteSpace=wrap;html=1;fontSize=32;" vertex="1" parent="1">
                    <mxGeometry x="-280" y="800" width="360" height="40" as="geometry"/>
                </mxCell>
                <mxCell id="150" value="AssetDescIndices&lt;span style=&quot;color: rgba(0 , 0 , 0 , 0) ; font-family: monospace ; font-size: 0px&quot;&gt;%3CmxGraphModel%3E%3Croot%3E%3CmxCell%20id%3D%220%22%2F%3E%3CmxCell%20id%3D%221%22%20parent%3D%220%22%2F%3E%3CmxCell%20id%3D%222%22%20value%3D%22SamplerDesc%22%20style%3D%22rounded%3D1%3BwhiteSpace%3Dwrap%3Bhtml%3D1%3BfontSize%3D26%3BfillColor%3Dnone%3B%22%20vertex%3D%221%22%20parent%3D%221%22%3E%3CmxGeometry%20x%3D%22480%22%20y%3D%221160%22%20width%3D%22280%22%20height%3D%2240%22%20as%3D%22geometry%22%2F%3E%3C%2FmxCell%3E%3C%2Froot%3E%3C%2FmxGraphModel%3E&lt;/span&gt;&lt;span style=&quot;color: rgba(0 , 0 , 0 , 0) ; font-family: monospace ; font-size: 0px&quot;&gt;%3CmxGraphModel%3E%3Croot%3E%3CmxCell%20id%3D%220%22%2F%3E%3CmxCell%20id%3D%221%22%20parent%3D%220%22%2F%3E%3CmxCell%20id%3D%222%22%20value%3D%22SamplerDesc%22%20style%3D%22rounded%3D1%3BwhiteSpace%3Dwrap%3Bhtml%3D1%3BfontSize%3D26%3BfillColor%3Dnone%3B%22%20vertex%3D%221%22%20parent%3D%221%22%3E%3CmxGeometry%20x%3D%22480%22%20y%3D%221160%22%20width%3D%22280%22%20height%3D%2240%22%20as%3D%22geometry%22%2F%3E%3C%2FmxCell%3E%3C%2Froot%3E%3C%2FmxGraphModel%3E&lt;/span&gt;" style="rounded=1;whiteSpace=wrap;html=1;fontSize=26;fillColor=none;" vertex="1" parent="1">
                    <mxGeometry x="1920" y="1240" width="280" height="40" as="geometry"/>
                </mxCell>
                <mxCell id="151" value="AssetKeyIndices&lt;span style=&quot;color: rgba(0 , 0 , 0 , 0) ; font-family: monospace ; font-size: 0px&quot;&gt;%3CmxGraphModel%3E%3Croot%3E%3CmxCell%20id%3D%220%22%2F%3E%3CmxCell%20id%3D%221%22%20parent%3D%220%22%2F%3E%3CmxCell%20id%3D%222%22%20value%3D%22SamplerDesc%22%20style%3D%22rounded%3D1%3BwhiteSpace%3Dwrap%3Bhtml%3D1%3BfontSize%3D26%3BfillColor%3Dnone%3B%22%20vertex%3D%221%22%20parent%3D%221%22%3E%3CmxGeometry%20x%3D%22480%22%20y%3D%221160%22%20width%3D%22280%22%20height%3D%2240%22%20as%3D%22geometry%22%2F%3E%3C%2FmxCell%3E%3C%2Froot%3E%3C%2FmxGraphModel%3E&lt;/span&gt;&lt;span style=&quot;color: rgba(0 , 0 , 0 , 0) ; font-family: monospace ; font-size: 0px&quot;&gt;%3CmxGraphModel%3E%3Croot%3E%3CmxCell%20id%3D%220%22%2F%3E%3CmxCell%20id%3D%221%22%20parent%3D%220%22%2F%3E%3CmxCell%20id%3D%222%22%20value%3D%22SamplerDesc%22%20style%3D%22rounded%3D1%3BwhiteSpace%3Dwrap%3Bhtml%3D1%3BfontSize%3D26%3BfillColor%3Dnone%3B%22%20vertex%3D%221%22%20parent%3D%221%22%3E%3CmxGeometry%20x%3D%22480%22%20y%3D%221160%22%20width%3D%22280%22%20height%3D%2240%22%20as%3D%22geometry%22%2F%3E%3C%2FmxCell%3E%3C%2Froot%3E%3C%2FmxGraphModel%3E&lt;/span&gt;" style="rounded=1;whiteSpace=wrap;html=1;fontSize=26;fillColor=none;" vertex="1" parent="1">
                    <mxGeometry x="1920" y="1280" width="280" height="40" as="geometry"/>
                </mxCell>
                <mxCell id="152" value="AssetResIndices&lt;span style=&quot;color: rgba(0 , 0 , 0 , 0) ; font-family: monospace ; font-size: 0px&quot;&gt;%3CmxGraphModel%3E%3Croot%3E%3CmxCell%20id%3D%220%22%2F%3E%3CmxCell%20id%3D%221%22%20parent%3D%220%22%2F%3E%3CmxCell%20id%3D%222%22%20value%3D%22SamplerDesc%22%20style%3D%22rounded%3D1%3BwhiteSpace%3Dwrap%3Bhtml%3D1%3BfontSize%3D26%3BfillColor%3Dnone%3B%22%20vertex%3D%221%22%20parent%3D%221%22%3E%3CmxGeometry%20x%3D%22480%22%20y%3D%221160%22%20width%3D%22280%22%20height%3D%2240%22%20as%3D%22geometry%22%2F%3E%3C%2FmxCell%3E%3C%2Froot%3E%3C%2FmxGraphModel%3E&lt;/span&gt;&lt;span style=&quot;color: rgba(0 , 0 , 0 , 0) ; font-family: monospace ; font-size: 0px&quot;&gt;%3CmxGraphModel%3E%3Croot%3E%3CmxCell%20id%3D%220%22%2F%3E%3CmxCell%20id%3D%221%22%20parent%3D%220%22%2F%3E%3CmxCell%20id%3D%222%22%20value%3D%22SamplerDesc%22%20style%3D%22rounded%3D1%3BwhiteSpace%3Dwrap%3Bhtml%3D1%3BfontSize%3D26%3BfillColor%3Dnone%3B%22%20vertex%3D%221%22%20parent%3D%221%22%3E%3CmxGeometry%20x%3D%22480%22%20y%3D%221160%22%20width%3D%22280%22%20height%3D%2240%22%20as%3D%22geometry%22%2F%3E%3C%2FmxCell%3E%3C%2Froot%3E%3C%2FmxGraphModel%3E&lt;/span&gt;" style="rounded=1;whiteSpace=wrap;html=1;fontSize=26;fillColor=none;" vertex="1" parent="1">
                    <mxGeometry x="1920" y="1320" width="280" height="40" as="geometry"/>
                </mxCell>
                <mxCell id="153" value="AssetKeyMaterialMeta&lt;span style=&quot;color: rgba(0 , 0 , 0 , 0) ; font-family: monospace ; font-size: 0px&quot;&gt;%3CmxGraphModel%3E%3Croot%3E%3CmxCell%20id%3D%220%22%2F%3E%3CmxCell%20id%3D%221%22%20parent%3D%220%22%2F%3E%3CmxCell%20id%3D%222%22%20value%3D%22SamplerDesc%22%20style%3D%22rounded%3D1%3BwhiteSpace%3Dwrap%3Bhtml%3D1%3BfontSize%3D26%3BfillColor%3Dnone%3B%22%20vertex%3D%221%22%20parent%3D%221%22%3E%3CmxGeometry%20x%3D%22480%22%20y%3D%221160%22%20width%3D%22280%22%20height%3D%2240%22%20as%3D%22geometry%22%2F%3E%3C%2FmxCell%3E%3C%2Froot%3E%3C%2FmxGraphModel%3E&lt;/span&gt;&lt;span style=&quot;color: rgba(0 , 0 , 0 , 0) ; font-family: monospace ; font-size: 0px&quot;&gt;%3CmxGraphModel%3E%3Croot%3E%3CmxCell%20id%3D%220%22%2F%3E%3CmxCell%20id%3D%221%22%20parent%3D%220%22%2F%3E%3CmxCell%20id%3D%222%22%20value%3D%22SamplerDesc%22%20style%3D%22rounded%3D1%3BwhiteSpace%3Dwrap%3Bhtml%3D1%3BfontSize%3D26%3BfillColor%3Dnone%3B%22%20vertex%3D%221%22%20parent%3D%221%22%3E%3CmxGeometry%20x%3D%22480%22%20y%3D%221160%22%20width%3D%22280%22%20height%3D%2240%22%20as%3D%22geometry%22%2F%3E%3C%2FmxCell%3E%3C%2Froot%3E%3C%2FmxGraphModel%3E&lt;/span&gt;" style="rounded=1;whiteSpace=wrap;html=1;fontSize=26;fillColor=none;" vertex="1" parent="1">
                    <mxGeometry x="-280" y="1160" width="360" height="40" as="geometry"/>
                </mxCell>
                <mxCell id="154" value="AssetResMaterialMeta&lt;span style=&quot;color: rgba(0 , 0 , 0 , 0) ; font-family: monospace ; font-size: 0px&quot;&gt;%3CmxGraphModel%3E%3Croot%3E%3CmxCell%20id%3D%220%22%2F%3E%3CmxCell%20id%3D%221%22%20parent%3D%220%22%2F%3E%3CmxCell%20id%3D%222%22%20value%3D%22SamplerDesc%22%20style%3D%22rounded%3D1%3BwhiteSpace%3Dwrap%3Bhtml%3D1%3BfontSize%3D26%3BfillColor%3Dnone%3B%22%20vertex%3D%221%22%20parent%3D%221%22%3E%3CmxGeometry%20x%3D%22480%22%20y%3D%221160%22%20width%3D%22280%22%20height%3D%2240%22%20as%3D%22geometry%22%2F%3E%3C%2FmxCell%3E%3C%2Froot%3E%3C%2FmxGraphModel%3E&lt;/span&gt;&lt;span style=&quot;color: rgba(0 , 0 , 0 , 0) ; font-family: monospace ; font-size: 0px&quot;&gt;%3CmxGraphModel%3E%3Croot%3E%3CmxCell%20id%3D%220%22%2F%3E%3CmxCell%20id%3D%221%22%20parent%3D%220%22%2F%3E%3CmxCell%20id%3D%222%22%20value%3D%22SamplerDesc%22%20style%3D%22rounded%3D1%3BwhiteSpace%3Dwrap%3Bhtml%3D1%3BfontSize%3D26%3BfillColor%3Dnone%3B%22%20vertex%3D%221%22%20parent%3D%221%22%3E%3CmxGeometry%20x%3D%22480%22%20y%3D%221160%22%20width%3D%22280%22%20height%3D%2240%22%20as%3D%22geometry%22%2F%3E%3C%2FmxCell%3E%3C%2Froot%3E%3C%2FmxGraphModel%3E&lt;/span&gt;" style="rounded=1;whiteSpace=wrap;html=1;fontSize=26;fillColor=none;" vertex="1" parent="1">
                    <mxGeometry x="-280" y="1200" width="360" height="40" as="geometry"/>
                </mxCell>
                <mxCell id="155" value="AssetKeyRenderPipeline&lt;span style=&quot;color: rgba(0 , 0 , 0 , 0) ; font-family: monospace ; font-size: 0px&quot;&gt;%3CmxGraphModel%3E%3Croot%3E%3CmxCell%20id%3D%220%22%2F%3E%3CmxCell%20id%3D%221%22%20parent%3D%220%22%2F%3E%3CmxCell%20id%3D%222%22%20value%3D%22SamplerDesc%22%20style%3D%22rounded%3D1%3BwhiteSpace%3Dwrap%3Bhtml%3D1%3BfontSize%3D26%3BfillColor%3Dnone%3B%22%20vertex%3D%221%22%20parent%3D%221%22%3E%3CmxGeometry%20x%3D%22480%22%20y%3D%221160%22%20width%3D%22280%22%20height%3D%2240%22%20as%3D%22geometry%22%2F%3E%3C%2FmxCell%3E%3C%2Froot%3E%3C%2FmxGraphModel%3E&lt;/span&gt;&lt;span style=&quot;color: rgba(0 , 0 , 0 , 0) ; font-family: monospace ; font-size: 0px&quot;&gt;%3CmxGraphModel%3E%3Croot%3E%3CmxCell%20id%3D%220%22%2F%3E%3CmxCell%20id%3D%221%22%20parent%3D%220%22%2F%3E%3CmxCell%20id%3D%222%22%20value%3D%22SamplerDesc%22%20style%3D%22rounded%3D1%3BwhiteSpace%3Dwrap%3Bhtml%3D1%3BfontSize%3D26%3BfillColor%3Dnone%3B%22%20vertex%3D%221%22%20parent%3D%221%22%3E%3CmxGeometry%20x%3D%22480%22%20y%3D%221160%22%20width%3D%22280%22%20height%3D%2240%22%20as%3D%22geometry%22%2F%3E%3C%2FmxCell%3E%3C%2Froot%3E%3C%2FmxGraphModel%3E&lt;/span&gt;" style="rounded=1;whiteSpace=wrap;html=1;fontSize=26;fillColor=none;" vertex="1" parent="1">
                    <mxGeometry x="2960" y="1640" width="320" height="40" as="geometry"/>
                </mxCell>
                <mxCell id="156" value="AssetResRenderPipeline&lt;span style=&quot;color: rgba(0 , 0 , 0 , 0) ; font-family: monospace ; font-size: 0px&quot;&gt;%3CmxGraphModel%3E%3Croot%3E%3CmxCell%20id%3D%220%22%2F%3E%3CmxCell%20id%3D%221%22%20parent%3D%220%22%2F%3E%3CmxCell%20id%3D%222%22%20value%3D%22SamplerDesc%22%20style%3D%22rounded%3D1%3BwhiteSpace%3Dwrap%3Bhtml%3D1%3BfontSize%3D26%3BfillColor%3Dnone%3B%22%20vertex%3D%221%22%20parent%3D%221%22%3E%3CmxGeometry%20x%3D%22480%22%20y%3D%221160%22%20width%3D%22280%22%20height%3D%2240%22%20as%3D%22geometry%22%2F%3E%3C%2FmxCell%3E%3C%2Froot%3E%3C%2FmxGraphModel%3E&lt;/span&gt;&lt;span style=&quot;color: rgba(0 , 0 , 0 , 0) ; font-family: monospace ; font-size: 0px&quot;&gt;%3CmxGraphModel%3E%3Croot%3E%3CmxCell%20id%3D%220%22%2F%3E%3CmxCell%20id%3D%221%22%20parent%3D%220%22%2F%3E%3CmxCell%20id%3D%222%22%20value%3D%22SamplerDesc%22%20style%3D%22rounded%3D1%3BwhiteSpace%3Dwrap%3Bhtml%3D1%3BfontSize%3D26%3BfillColor%3Dnone%3B%22%20vertex%3D%221%22%20parent%3D%221%22%3E%3CmxGeometry%20x%3D%22480%22%20y%3D%221160%22%20width%3D%22280%22%20height%3D%2240%22%20as%3D%22geometry%22%2F%3E%3C%2FmxCell%3E%3C%2Froot%3E%3C%2FmxGraphModel%3E&lt;/span&gt;" style="rounded=1;whiteSpace=wrap;html=1;fontSize=26;fillColor=none;" vertex="1" parent="1">
                    <mxGeometry x="2960" y="1680" width="320" height="40" as="geometry"/>
                </mxCell>
                <mxCell id="157" value="AssetResShaderMainCamera" style="rounded=1;whiteSpace=wrap;html=1;fontSize=22;fillColor=none;" vertex="1" parent="1">
                    <mxGeometry x="2600" y="1485" width="320" height="40" as="geometry"/>
                </mxCell>
                <mxCell id="158" value="..." style="rounded=1;whiteSpace=wrap;html=1;fontSize=22;fillColor=none;" vertex="1" parent="1">
                    <mxGeometry x="2600" y="1525" width="320" height="40" as="geometry"/>
                </mxCell>
                <mxCell id="159" value="KeyRenderBindGroup" style="rounded=1;whiteSpace=wrap;html=1;fontSize=26;fillColor=none;" vertex="1" parent="1">
                    <mxGeometry x="1150" y="1430" width="320" height="40" as="geometry"/>
                </mxCell>
                <mxCell id="160" value="RenderBindGroup" style="rounded=1;whiteSpace=wrap;html=1;fontSize=26;fillColor=none;" vertex="1" parent="1">
                    <mxGeometry x="1150" y="1470" width="320" height="40" as="geometry"/>
                </mxCell>
                <mxCell id="161" value="通过 Component 使用" style="text;strokeColor=none;fillColor=none;align=left;verticalAlign=middle;spacingLeft=4;spacingRight=4;overflow=hidden;points=[[0,0.5],[1,0.5]];portConstraint=eastwest;rotatable=0;fontSize=32;" vertex="1" parent="1">
                    <mxGeometry x="-710" y="1240" width="330" height="40" as="geometry"/>
                </mxCell>
                <mxCell id="163" value="BindGroup" style="rounded=1;whiteSpace=wrap;html=1;fontSize=26;fillColor=none;" vertex="1" parent="1">
                    <mxGeometry x="1150" y="1510" width="160" height="40" as="geometry"/>
                </mxCell>
                <mxCell id="164" value="Layout" style="rounded=1;whiteSpace=wrap;html=1;fontSize=26;fillColor=none;" vertex="1" parent="1">
                    <mxGeometry x="1310" y="1510" width="160" height="40" as="geometry"/>
                </mxCell>
                <mxCell id="165" value="DynUniformBuffer" style="rounded=1;whiteSpace=wrap;html=1;fontSize=32;" vertex="1" parent="1">
                    <mxGeometry x="120" y="970" width="360" height="40" as="geometry"/>
                </mxCell>
                <mxCell id="167" value="MaterialValueBind" style="rounded=1;whiteSpace=wrap;html=1;fontSize=32;fillColor=none;" vertex="1" parent="1">
                    <mxGeometry x="120" y="1360" width="360" height="40" as="geometry"/>
                </mxCell>
                <mxCell id="170" value="" style="edgeStyle=segmentEdgeStyle;endArrow=classic;html=1;fontSize=22;exitX=0.5;exitY=1;exitDx=0;exitDy=0;entryX=0;entryY=0.5;entryDx=0;entryDy=0;" edge="1" parent="1" source="167" target="159">
                    <mxGeometry width="50" height="50" relative="1" as="geometry">
                        <mxPoint x="1090" y="1450" as="sourcePoint"/>
                        <mxPoint x="1140" y="1400" as="targetPoint"/>
                        <Array as="points">
                            <mxPoint x="300" y="1450"/>
                        </Array>
                    </mxGeometry>
                </mxCell>
                <mxCell id="172" value="" style="edgeStyle=segmentEdgeStyle;endArrow=classic;html=1;fontSize=22;exitX=0.5;exitY=1;exitDx=0;exitDy=0;" edge="1" parent="1" source="154">
                    <mxGeometry width="50" height="50" relative="1" as="geometry">
                        <mxPoint x="1890" y="1370" as="sourcePoint"/>
                        <mxPoint x="120" y="1380" as="targetPoint"/>
                        <Array as="points">
                            <mxPoint x="-100" y="1380"/>
                        </Array>
                    </mxGeometry>
                </mxCell>
                <mxCell id="176" value="" style="edgeStyle=segmentEdgeStyle;endArrow=classic;html=1;fontSize=22;exitX=0.5;exitY=1;exitDx=0;exitDy=0;entryX=0;entryY=0.5;entryDx=0;entryDy=0;" edge="1" parent="1" source="140" target="159">
                    <mxGeometry width="50" height="50" relative="1" as="geometry">
                        <mxPoint x="800" y="1380" as="sourcePoint"/>
                        <mxPoint x="850" y="1330" as="targetPoint"/>
                        <Array as="points">
                            <mxPoint x="660" y="1450"/>
                        </Array>
                    </mxGeometry>
                </mxCell>
                <mxCell id="177" value="" style="edgeStyle=segmentEdgeStyle;endArrow=classic;html=1;fontSize=22;exitX=0.5;exitY=1;exitDx=0;exitDy=0;entryX=0;entryY=0.5;entryDx=0;entryDy=0;" edge="1" parent="1" source="142" target="159">
                    <mxGeometry width="50" height="50" relative="1" as="geometry">
                        <mxPoint x="670" y="1250" as="sourcePoint"/>
                        <mxPoint x="1440" y="1460" as="targetPoint"/>
                        <Array as="points">
                            <mxPoint x="980" y="1450"/>
                        </Array>
                    </mxGeometry>
                </mxCell>
                <mxCell id="178" value="" style="edgeStyle=segmentEdgeStyle;endArrow=classic;html=1;fontSize=22;exitX=0;exitY=0.5;exitDx=0;exitDy=0;" edge="1" parent="1" source="145" target="157">
                    <mxGeometry width="50" height="50" relative="1" as="geometry">
                        <mxPoint x="1730" y="1450" as="sourcePoint"/>
                        <mxPoint x="1780" y="1400" as="targetPoint"/>
                        <Array as="points">
                            <mxPoint x="1550" y="1260"/>
                            <mxPoint x="1550" y="1510"/>
                        </Array>
                    </mxGeometry>
                </mxCell>
                <mxCell id="179" value="" style="edgeStyle=segmentEdgeStyle;endArrow=classic;html=1;fontSize=22;exitX=1;exitY=0.5;exitDx=0;exitDy=0;" edge="1" parent="1" source="159" target="157">
                    <mxGeometry width="50" height="50" relative="1" as="geometry">
                        <mxPoint x="1760" y="1550" as="sourcePoint"/>
                        <mxPoint x="1810" y="1500" as="targetPoint"/>
                        <Array as="points">
                            <mxPoint x="1530" y="1450"/>
                            <mxPoint x="1530" y="1510"/>
                        </Array>
                    </mxGeometry>
                </mxCell>
                <mxCell id="185" value="..." style="rounded=1;whiteSpace=wrap;html=1;fontSize=22;fillColor=none;" vertex="1" parent="1">
                    <mxGeometry x="2160" y="1960" width="320" height="40" as="geometry"/>
                </mxCell>
                <mxCell id="186" value="" style="edgeStyle=segmentEdgeStyle;endArrow=classic;html=1;fontSize=22;exitX=0.5;exitY=0;exitDx=0;exitDy=0;" edge="1" parent="1" source="187" target="157">
                    <mxGeometry width="50" height="50" relative="1" as="geometry">
                        <mxPoint x="2310" y="2350" as="sourcePoint"/>
                        <mxPoint x="2560" y="1505" as="targetPoint"/>
                        <Array as="points">
                            <mxPoint x="2320" y="1510"/>
                        </Array>
                    </mxGeometry>
                </mxCell>
                <mxCell id="187" value="Lighting" style="rounded=1;whiteSpace=wrap;html=1;fontSize=22;fillColor=none;" vertex="1" parent="1">
                    <mxGeometry x="2160" y="1880" width="320" height="40" as="geometry"/>
                </mxCell>
                <mxCell id="188" value="Skin" style="rounded=1;whiteSpace=wrap;html=1;fontSize=22;fillColor=none;" vertex="1" parent="1">
                    <mxGeometry x="2160" y="1920" width="320" height="40" as="geometry"/>
                </mxCell>
                <mxCell id="189" value="" style="edgeStyle=segmentEdgeStyle;endArrow=classic;html=1;fontSize=22;exitX=0.5;exitY=1;exitDx=0;exitDy=0;entryX=0;entryY=0.5;entryDx=0;entryDy=0;" edge="1" parent="1" source="158" target="155">
                    <mxGeometry width="50" height="50" relative="1" as="geometry">
                        <mxPoint x="2840" y="1650" as="sourcePoint"/>
                        <mxPoint x="2890" y="1600" as="targetPoint"/>
                        <Array as="points">
                            <mxPoint x="2760" y="1660"/>
                        </Array>
                    </mxGeometry>
                </mxCell>
                <mxCell id="190" value="Primitive" style="rounded=1;whiteSpace=wrap;html=1;fontSize=22;fillColor=none;" vertex="1" parent="1">
                    <mxGeometry x="2680" y="1880" width="320" height="40" as="geometry"/>
                </mxCell>
                <mxCell id="191" value="Blend" style="rounded=1;whiteSpace=wrap;html=1;fontSize=22;fillColor=none;" vertex="1" parent="1">
                    <mxGeometry x="2680" y="1920" width="320" height="40" as="geometry"/>
                </mxCell>
                <mxCell id="192" value="DepthAndStencil" style="rounded=1;whiteSpace=wrap;html=1;fontSize=22;fillColor=none;" vertex="1" parent="1">
                    <mxGeometry x="2680" y="1960" width="320" height="40" as="geometry"/>
                </mxCell>
                <mxCell id="193" value="Target" style="rounded=1;whiteSpace=wrap;html=1;fontSize=22;fillColor=none;" vertex="1" parent="1">
                    <mxGeometry x="2680" y="2000" width="320" height="40" as="geometry"/>
                </mxCell>
                <mxCell id="194" value="" style="edgeStyle=segmentEdgeStyle;endArrow=classic;html=1;fontSize=22;exitX=0.5;exitY=0;exitDx=0;exitDy=0;entryX=0.001;entryY=0.526;entryDx=0;entryDy=0;entryPerimeter=0;" edge="1" parent="1" source="190" target="155">
                    <mxGeometry width="50" height="50" relative="1" as="geometry">
                        <mxPoint x="2730" y="1575" as="sourcePoint"/>
                        <mxPoint x="2970" y="1670.0000000000005" as="targetPoint"/>
                        <Array as="points">
                            <mxPoint x="2840" y="1661"/>
                        </Array>
                    </mxGeometry>
                </mxCell>
                <mxCell id="195" value="...Uniform" style="rounded=1;whiteSpace=wrap;html=1;fontSize=26;fillColor=none;" vertex="1" parent="1">
                    <mxGeometry x="120" y="1320" width="360" height="40" as="geometry"/>
                </mxCell>
                <mxCell id="196" value="Mat2Uniform" style="rounded=1;whiteSpace=wrap;html=1;fontSize=26;fillColor=none;" vertex="1" parent="1">
                    <mxGeometry x="120" y="1280" width="360" height="40" as="geometry"/>
                </mxCell>
                <mxCell id="197" value="Mat4Uniform" style="rounded=1;whiteSpace=wrap;html=1;fontSize=26;fillColor=none;" vertex="1" parent="1">
                    <mxGeometry x="120" y="1240" width="360" height="40" as="geometry"/>
                </mxCell>
                <mxCell id="198" value="VertexBufferLayouts" style="rounded=1;whiteSpace=wrap;html=1;fontSize=32;" vertex="1" parent="1">
                    <mxGeometry x="2240" y="800" width="320" height="40" as="geometry"/>
                </mxCell>
                <mxCell id="199" value="AssetKeyVBLayouts" style="rounded=1;whiteSpace=wrap;html=1;fontSize=22;fillColor=none;" vertex="1" parent="1">
                    <mxGeometry x="2240" y="1240" width="320" height="40" as="geometry"/>
                </mxCell>
                <mxCell id="201" style="edgeStyle=none;html=1;fontSize=22;" edge="1" parent="1" source="200" target="145">
                    <mxGeometry relative="1" as="geometry"/>
                </mxCell>
                <mxCell id="202" style="edgeStyle=none;html=1;fontSize=22;" edge="1" parent="1" source="200" target="199">
                    <mxGeometry relative="1" as="geometry"/>
                </mxCell>
                <mxCell id="200" value="GeometryDesc" style="rounded=1;whiteSpace=wrap;html=1;fontSize=32;" vertex="1" parent="1">
                    <mxGeometry x="1600" y="1160" width="600" height="40" as="geometry"/>
                </mxCell>
                <mxCell id="203" value="AssetResVBLayouts" style="rounded=1;whiteSpace=wrap;html=1;fontSize=22;fillColor=none;" vertex="1" parent="1">
                    <mxGeometry x="2240" y="1280" width="320" height="40" as="geometry"/>
                </mxCell>
                <mxCell id="204" value="" style="edgeStyle=segmentEdgeStyle;endArrow=classic;html=1;fontSize=22;exitX=1;exitY=0.5;exitDx=0;exitDy=0;entryX=0.5;entryY=0;entryDx=0;entryDy=0;" edge="1" parent="1" source="203" target="155">
                    <mxGeometry width="50" height="50" relative="1" as="geometry">
                        <mxPoint x="2770" y="1575" as="sourcePoint"/>
                        <mxPoint x="2970" y="1670" as="targetPoint"/>
                        <Array as="points">
                            <mxPoint x="3120" y="1300"/>
                        </Array>
                    </mxGeometry>
                </mxCell>
            </root>
        </mxGraphModel>
    </diagram>
</mxfile>